<svg width="22" height="22" viewBox="0 0 22 22" fill="none" xmlns="http://www.w3.org/2000/svg">
<path d="M8.3646 19.3417L0.641685 11.6417C0.550018 11.55 0.484935 11.4507 0.446435 11.3437C0.407935 11.2368 0.388991 11.1222 0.389602 11C0.389602 10.8778 0.408852 10.7632 0.447352 10.6562C0.485852 10.5493 0.550629 10.45 0.641685 10.3583L8.3646 2.63541C8.57849 2.42152 8.84585 2.31458 9.16669 2.31458C9.48752 2.31458 9.76252 2.42916 9.99169 2.65833C10.2209 2.88749 10.3354 3.15485 10.3354 3.46041C10.3354 3.76596 10.2209 4.03333 9.99169 4.26249L3.25419 11L9.99169 17.7375C10.2056 17.9514 10.3125 18.2151 10.3125 18.5286C10.3125 18.8421 10.1979 19.1131 9.96877 19.3417C9.7396 19.5708 9.47224 19.6854 9.16669 19.6854C8.86113 19.6854 8.59377 19.5708 8.3646 19.3417Z" fill="white"/>
</svg>
