<svg width="393" height="281" viewBox="0 0 393 281" fill="none" xmlns="http://www.w3.org/2000/svg">
<path d="M0 0H393L330.241 56.4373C325.459 60.7381 319.891 64.0758 313.844 66.2674L256.713 86.9719C249.797 89.4783 243.998 94.3624 240.352 100.751L219.347 137.556C214.142 146.677 204.672 152.542 194.187 153.14L156.573 155.284C144.619 155.965 134.127 163.47 129.619 174.562L119.256 200.061C115.348 209.676 106.888 216.698 96.7163 218.767L56.1527 227.018C49.5634 228.358 43.5885 231.805 39.1292 236.838L0 281V0Z" fill="#62E1D9"/>
<path d="M0 0H357.911L301.401 50.66C296.619 54.9473 291.056 58.2731 285.015 60.4555L234.747 78.6165C227.832 81.1147 222.03 85.9895 218.377 92.3703L200.516 123.57C195.304 132.673 185.843 138.524 175.371 139.119L144.322 140.883C132.378 141.562 121.89 149.053 117.374 160.131L109.18 180.232C105.264 189.838 96.8017 196.849 86.6344 198.911L52.031 205.928C45.4506 207.262 39.4813 210.697 35.0208 215.715L0 255.118V0Z" fill="#2A9C95"/>
</svg>
