<svg width="28" height="28" viewBox="0 0 28 28" fill="none" xmlns="http://www.w3.org/2000/svg">
<path d="M2.33334 6.14834L3.82667 4.66667L23.3333 24.1733L21.8517 25.6667L18.2583 22.0733C16.9167 22.5167 15.4933 22.75 14 22.75C8.16667 22.75 3.185 19.1217 1.16667 14C1.97167 11.9467 3.25501 10.1383 4.88834 8.70334L2.33334 6.14834ZM14 10.5C14.9283 10.5 15.8185 10.8688 16.4749 11.5251C17.1313 12.1815 17.5 13.0717 17.5 14C17.5006 14.3973 17.4335 14.7919 17.3017 15.1667L12.8333 10.6983C13.2081 10.5665 13.6027 10.4994 14 10.5ZM14 5.25001C19.8333 5.25001 24.815 8.87834 26.8333 14C25.8812 16.4187 24.2631 18.5182 22.1667 20.055L20.51 18.3867C22.1234 17.2706 23.4246 15.7606 24.29 14C23.3468 12.0749 21.8825 10.4531 20.0635 9.31876C18.2445 8.18445 16.1437 7.5832 14 7.58334C12.7283 7.58334 11.48 7.79334 10.3133 8.16667L8.51667 6.38167C10.1967 5.65834 12.0517 5.25001 14 5.25001ZM3.71001 14C4.65318 15.9251 6.1175 17.5469 7.93652 18.6812C9.75554 19.8156 11.8563 20.4168 14 20.4167C14.805 20.4167 15.5983 20.335 16.3333 20.1717L13.6733 17.5C12.8615 17.413 12.104 17.0507 11.5266 16.4734C10.9493 15.896 10.587 15.1385 10.5 14.3267L6.53334 10.3483C5.37834 11.34 4.41001 12.5767 3.71001 14Z" fill="#2A9C95"/>
</svg>
