<svg width="27" height="32" viewBox="0 0 27 32" fill="none" xmlns="http://www.w3.org/2000/svg">
<path d="M26.3892 24.9376C25.9054 26.0556 25.3326 27.0846 24.6687 28.031C23.7642 29.3207 23.0234 30.2135 22.4526 30.7094C21.5677 31.5232 20.6196 31.9399 19.6043 31.9636C18.8754 31.9636 17.9964 31.7563 16.9733 31.3356C15.9467 30.9167 15.0034 30.7094 14.1408 30.7094C13.2361 30.7094 12.2659 30.9167 11.2281 31.3356C10.1887 31.7563 9.3514 31.9755 8.71121 31.9973C7.73762 32.0385 6.76719 31.61 5.79851 30.7094C5.18027 30.1701 4.40698 29.2455 3.48056 27.9361C2.48663 26.5376 1.66949 24.9159 1.0293 23.0671C0.343692 21.0701 0 19.1364 0 17.2642C0 15.1197 0.463396 13.2701 1.39156 11.7201C2.12102 10.4751 3.09145 9.49301 4.30604 8.77207C5.52062 8.0511 6.83296 7.68369 8.24625 7.66018C9.01956 7.66018 10.0336 7.8994 11.2938 8.36951C12.5505 8.84118 13.3574 9.0804 13.7112 9.0804C13.9756 9.0804 14.872 8.8007 16.3916 8.2431C17.8286 7.72598 19.0413 7.51186 20.0349 7.5962C22.7272 7.81347 24.7498 8.87477 26.0949 10.7868C23.6871 12.2457 22.496 14.2891 22.5197 16.9104C22.5415 18.9523 23.2822 20.6514 24.738 22.0005C25.3976 22.6266 26.1345 23.1106 26.9542 23.4542C26.7765 23.9698 26.5887 24.4636 26.3892 24.9376ZM20.2146 0.64018C20.2146 2.24054 19.63 3.7348 18.4646 5.11787C17.0582 6.76204 15.3571 7.71215 13.5124 7.56223C13.4889 7.37024 13.4753 7.16816 13.4753 6.95582C13.4753 5.41949 14.1441 3.77528 15.3319 2.43094C15.9248 1.75027 16.679 1.1843 17.5935 0.732819C18.5061 0.288073 19.3692 0.0421186 20.1811 0C20.2048 0.213943 20.2146 0.4279 20.2146 0.640159V0.64018Z" fill="black"/>
</svg>
